<svg width="284" height="44" viewBox="0 0 284 44" fill="none" xmlns="http://www.w3.org/2000/svg">
<path d="M0.0800171 25.61H0.610017C2.23002 30.97 4.91002 32.5 8.51002 32.5C11.76 32.5 12.99 31.31 12.99 29.65C12.99 27.67 10.84 27.24 7.50002 26.31C3.99002 25.34 0.0800171 23.98 0.0800171 19.11C0.0800171 14.63 3.15002 11.69 7.81002 11.69C9.74002 11.69 11.06 12.17 12.24 12.7C12.77 12.92 12.94 13.05 13.47 13.05C14.13 13.05 14.44 12.7 15.01 11.6H15.49V18.32H14.96C13.38 14.28 11.14 12.61 8.02002 12.61C5.12002 12.61 3.94002 13.8 3.94002 15.16C3.94002 17.18 6.57002 17.66 9.47002 18.45C12.94 19.37 16.8 20.78 16.8 25.96C16.8 30.96 13.55 33.47 8.59002 33.47C6.48002 33.47 4.99002 33.03 3.32002 32.2C3.06002 32.02 2.66002 31.85 2.49002 31.85C1.92002 31.85 1.30002 32.25 0.600018 33.47H0.0800171V25.61Z" fill="#EE4623"/>
<path d="M30.81 22.71V19.33C30.81 13.75 30.33 12.31 28.57 12.31C27.78 12.31 26.51 12.66 26.51 14.07C26.51 14.42 26.6 14.86 26.77 15.34H27.87C28.09 15.91 28.22 16.48 28.22 17.32C28.22 19.38 26.55 20.74 24.36 20.74C21.64 20.74 20.58 19.25 20.58 17.1C20.58 13.41 23.78 11.7 29.76 11.7C36.65 11.7 38.98 13.63 38.98 20V28.91C38.98 30.71 39.51 31.19 40.25 31.19C41.04 31.19 41.79 30.36 42.01 26.67L42.67 26.71C42.44 31.98 40.82 33.4699 37.04 33.4699C33.48 33.4699 31.51 32.3699 30.98 30.2199C30.28 32.33 29 33.4699 25.93 33.4699C22.86 33.4699 19.43 32.55 19.43 28.16C19.43 23.73 23.25 22.72 29.53 22.72H30.81V22.71ZM30.81 27.5V23.42H30.5C28.66 23.42 27.78 24.74 27.78 27.41V28.11C27.78 31.27 28.09 31.71 28.92 31.71C29.75 31.71 30.81 30.31 30.81 27.5Z" fill="#EE4623"/>
<path d="M54.56 12.13V16.17C55.26 13.97 56.71 11.69 60.75 11.69C63.87 11.69 66.19 13.05 66.94 16.43C67.64 14.23 69.44 11.69 73.39 11.69C77.21 11.69 79.84 13.71 79.84 19.02V32.23H82.3V33.02H70.15V32.23H71.69V17.97C71.69 14.24 71.21 13.8 70.42 13.8C68.84 13.8 67.22 16.17 67.22 19.86V32.24H68.8V33.03H57.5V32.24H59.04V17.97C59.04 14.24 58.56 13.8 57.77 13.8C56.15 13.8 54.57 16.57 54.57 20.12V32.24H56.15V33.03H43.98V32.24H46.39V12.92H43.98V12.13H54.56Z" fill="#EE4623"/>
<path d="M103.29 12.13V16.17C104.04 13.97 105.49 11.69 109.83 11.69C113.91 11.69 116.63 13.71 116.63 19.02V32.23H119.09V33.02H106.67V32.23H108.47V17.97C108.47 14.24 107.94 13.8 106.85 13.8C105.01 13.8 103.29 16.57 103.29 20.12V32.24H105.18V33.03H92.71V32.24H95.12V12.92H92.71V12.13H103.29Z" fill="#EE4623"/>
<path d="M139.38 9.09995C139.51 8.39995 139.25 7.73995 138.33 7.73995C137.76 7.73995 136.44 7.91995 136.44 10.6399C136.44 11.3399 136.53 12.2199 136.75 13.2699C138.46 14.4099 140.09 15.9499 140.09 18.8499C140.09 23.8599 136.49 26.36 131.13 26.36C129.86 26.36 128.5 26.1799 127.57 26.0099C126.03 26.9799 125.64 27.4599 125.64 27.8499C125.64 28.2399 126.12 28.4599 128.45 28.4599H132.93C137.89 28.4599 142.9 29.65 142.9 35.6199C142.9 40.4899 139.39 44 130.52 44C122.88 44 119.68 42.16 119.68 39.2999C119.68 37.0999 121.52 36.2299 123.06 35.7899L125.69 36.9799C125.43 37.9499 125.34 38.6899 125.34 39.3899C125.34 41.2299 126.26 43.1699 130.96 43.1699C135.61 43.1699 138.07 41.2799 138.07 38.52C138.07 36.41 137.1 35.5799 132.49 35.5799H128.23C123.01 35.5799 121.6 33.43 121.6 31.5C121.6 29 123.18 27.7699 126.6 25.7099C123.18 24.74 121.51 22.6799 121.51 19.0399C121.51 14.9099 124.36 11.7099 130.99 11.7099C133.14 11.7099 134.41 12.0199 135.86 12.8099C135.68 12.0199 135.6 11.3199 135.6 10.6599C135.6 7.05995 138.1 6.00995 139.9 6.00995C141.96 6.00995 143.46 7.14995 143.46 9.25995C143.46 11.2799 142.14 12.1599 140.69 12.1599C139.37 12.1599 138.23 11.3699 138.14 9.87995L139.38 9.09995ZM128.85 20.4299C128.85 24.5599 129.6 25.4799 130.91 25.4799C132.1 25.4799 132.84 24.7799 132.84 20.2099V18.0599C132.84 13.1399 132.14 12.4799 130.95 12.4799C129.72 12.4799 128.84 13.2699 128.84 18.0599V20.4299H128.85Z" fill="#EE4623"/>
<path d="M155.06 22.71V19.33C155.06 13.75 154.58 12.31 152.82 12.31C152.03 12.31 150.76 12.66 150.76 14.07C150.76 14.42 150.85 14.86 151.02 15.34H152.12C152.34 15.91 152.47 16.48 152.47 17.32C152.47 19.38 150.8 20.74 148.61 20.74C145.89 20.74 144.83 19.25 144.83 17.1C144.83 13.41 148.03 11.7 154.01 11.7C160.9 11.7 163.23 13.63 163.23 20V28.91C163.23 30.71 163.76 31.19 164.5 31.19C165.29 31.19 166.04 30.36 166.26 26.67L166.92 26.71C166.7 31.98 165.08 33.4699 161.3 33.4699C157.74 33.4699 155.77 32.3699 155.24 30.2199C154.54 32.33 153.26 33.4699 150.19 33.4699C147.12 33.4699 143.69 32.55 143.69 28.16C143.69 23.73 147.51 22.72 153.79 22.72H155.06V22.71ZM155.06 27.5V23.42H154.75C152.91 23.42 152.03 24.74 152.03 27.41V28.11C152.03 31.27 152.34 31.71 153.17 31.71C154 31.71 155.06 30.31 155.06 27.5Z" fill="#EE4623"/>
<path d="M187.59 15.47C188.56 13.27 190.14 11.69 193.47 11.69C198.47 11.69 201.5 15.11 201.5 22.62C201.5 30.13 198.43 33.46 192.46 33.46C189.43 33.46 187.94 32.63 187.32 30.43L187.01 33.02H177V32.23H179.41V0.899975H177V0.0999756H187.58V15.47H187.59ZM187.59 19.51V27.68C187.59 30.05 188.6 32.2 190.44 32.2C192.59 32.2 193.03 29.61 193.03 23.51V21.23C193.03 15.04 192.5 13.59 191.01 13.59C189.22 13.58 187.59 15.69 187.59 19.51Z" fill="#EE4623"/>
<path d="M214.29 0.0999756V32.24H216.75V33.03H203.71V32.24H206.12V0.899975H203.53V0.0999756H214.29Z" fill="#EE4623"/>
<path d="M233.91 33.03L233.43 29.83C232.6 31.89 231.19 33.47 227.24 33.47C223.16 33.47 220.44 31.45 220.44 26.14V12.92H217.98V12.13H228.6V27.19C228.6 30.92 229.13 31.49 230.22 31.49C231.98 31.49 233.34 29.69 233.34 26.35V12.92H231.32V12.13H241.51V32.24H243.92V33.03H233.91Z" fill="#EE4623"/>
<path d="M256.26 12.13V16.17C256.96 13.97 258.41 11.69 262.45 11.69C265.57 11.69 267.89 13.05 268.64 16.43C269.34 14.23 271.14 11.69 275.09 11.69C278.91 11.69 281.54 13.71 281.54 19.02V32.23H284V33.02H271.84V32.23H273.38V17.97C273.38 14.24 272.9 13.8 272.11 13.8C270.53 13.8 268.91 16.17 268.91 19.86V32.24H270.49V33.03H259.21V32.24H260.75V17.97C260.75 14.24 260.27 13.8 259.48 13.8C257.86 13.8 256.28 16.57 256.28 20.12V32.24H257.86V33.03H245.7V32.24H248.11V12.92H245.7V12.13H256.26Z" fill="#EE4623"/>
</svg>
